PathFileType	4	(X/Y/Z)	C:/Users/beibeiliu/ov580/test_trc\sequence.35_training_dense_right.trc
DataRate	CameraRate	NumFrames	NumMarkers	Units	OrigDataRate	OrigDataStartFrame	OrigNumFrames
120	120	22	19	mm	120	248	283
Frame#	Time	ThumbCMC			ThumbMCP			ThumbIP			ThumbTip			IndexMCP			IndexPIP			IndexTip			MiddleMCP			MiddlePIP			MiddleTip			RingMCP			RingPIP			RingTip			PinkyMCP			PinkyPIP			PinkyTip			BackHand1			BackHand2			BackHand3	
		X0	Y0	Z0	X1	Y1	Z1	X2	Y2	Z2	X3	Y3	Z3	X4	Y4	Z4	X5	Y5	Z5	X6	Y6	Z6	X7	Y7	Z7	X8	Y8	Z8	X9	Y9	Z9	X10	Y10	Z10	X11	Y11	Z11	X12	Y12	Z12	X13	Y13	Z13	X14	Y14	Z14	X15	Y15	Z15	X16	Y16	Z16	X17	Y17	Z17	X18	Y18	Z18	
247	2.05833	120.114	7.42505	55.044	105.464	4.51871	31.602	97.988	4.09819	10.9953	88.061	4.58736	-5.2669	131.119	15.3375	-11.631	127.277	7.98501	-37.1169	120.685	-3.0627	-58.4521	153.711	8.94942	-18.1293	153.674	4.03745	-43.1449	151.199	-3.59837	-66.592	173.63	-0.801852	-13.2436	175.884	-6.38448	-33.0738	173.902	-11.2152	-55.1114	189.91	-12.8441	2.56402	191.228	-13.5255	-13.9672	200.043	-16.7943	-30.8604	173.803	4.90451	36.6029	170.459	8.33501	59.8505	148.081	21.0506	44.1018	
248	2.06667	119.634	1.80626	58.1812	103.698	-1.35044	37.8444	94.8844	-0.385744	14.0912	83.4154	-1.51514	-0.836165	126.699	8.873	-10.395	125.165	2.60659	-32.211	120.01	-6.99205	-53.5997	152.592	3.01386	-18.5799	148.935	-0.543708	-40.8404	149.023	-8.65844	-64.8048	167.549	-4.21303	-8.20852	169.058	-6.65328	-28.6883	170.79	-12.4596	-53.547	185.902	-14.5601	6.34679	189.845	-16.6333	-10.6618	201.456	-16.0675	-28.9438	170.263	4.77806	37.0157	173.48	7.47513	62.3729	146.384	15.0163	45.9788	
249	2.075	122.241	-1.3222	61.6163	104.121	-4.21204	36.8691	95.5653	-5.27723	18.8526	82.3178	-5.82904	0.811127	126.676	2.96687	-10.4418	120.705	-2.66382	-30.6201	118.542	-11.6231	-50.7355	151.302	-1.00382	-17.2847	147.713	-4.31803	-37.2929	150.017	-13.2774	-64.3887	167.52	-7.19578	-9.70822	170.627	-10.8843	-29.0335	171.55	-14.1418	-50.5835	183.408	-16.3122	5.88411	193.146	-20.6576	-5.86495	200.458	-17.5907	-26.7727	166.869	3.59863	37.316	170.158	6.25095	64.8848	148.471	13.534	48.6189	
250	2.08333	120.856	-3.18837	58.7351	103.067	-8.46725	42.1526	92.4891	-7.97585	20.4108	84.8289	-9.92167	5.29358	124.169	-1.8051	-9.86215	124.246	-7.5719	-27.8385	117.087	-15.3892	-48.2736	150.545	-6.35676	-12.7182	151.469	-10.9214	-37.2478	151.14	-17.9763	-61.5818	171.438	-13.5177	-3.23722	173.883	-15.9424	-25.4805	175.349	-17.6496	-49.1442	186.919	-21.2046	9.09606	195.118	-22.551	-6.90968	202.999	-20.8167	-22.1509	168.478	0.417081	39.98	169.418	3.5753	62.2975	144.617	10.1229	46.0842	
251	2.09167	122.06	-4.91948	60.8654	109.05	-11.9677	43.1922	97.5064	-12.7154	23.8071	84.9565	-11.7711	5.69562	127.002	-5.33924	-4.33556	121.216	-11.7128	-29.3042	120.302	-21.5582	-52.8122	150.578	-9.14297	-11.8838	152.39	-15.6996	-37.2379	151.864	-20.4897	-60.05	171.469	-15.5685	-4.70245	177.848	-19.0191	-24.9258	177.179	-21.2746	-47.6508	191.514	-23.7224	10.2884	196.664	-25.9797	-6.47874	205.591	-20.7963	-20.9004	170.881	-1.30626	36.651	175.257	0.523222	61.436	147.717	6.75084	46.2024	
252	2.1	125.684	-9.1817	60.6468	109.834	-13.2208	39.9001	99.4348	-15.4272	21.9632	90.746	-17.6994	8.55901	135.577	-9.45327	-6.19894	128.307	-16.0847	-29.9688	121.517	-23.8831	-52.5957	155.921	-13.3072	-12.7717	158.67	-18.4628	-34.3271	156.763	-26.242	-62.7475	175.329	-18.9007	-4.1085	181.171	-21.2476	-24.6043	182.072	-23.3417	-47.2026	191.059	-25.0712	8.93338	201.862	-28.3866	-3.36677	211.707	-24.8701	-17.1972	177.059	-4.29121	38.2255	179.148	-0.239584	62.8108	153.081	4.6622	47.003	
253	2.10833	128.896	-10.1836	58.2092	115.547	-17.3981	43.3613	100.772	-17.184	19.6235	89.1953	-18.1197	8.30031	134.307	-12.4219	-6.70983	129.878	-19.1484	-28.9061	125.08	-25.9328	-48.0661	157.215	-16.572	-12.7266	161.593	-22.5062	-37.8064	160.278	-27.5481	-62.0351	180.85	-21.3684	-5.05805	182.418	-24.7234	-23.8473	184.858	-25.9463	-46.354	197.605	-28.5519	11.5073	203.04	-29.7748	-1.99906	214.519	-25.8446	-16.2022	179.055	-8.47542	36.817	178.066	1.04329	62.0528	156.005	3.41594	47.1096	
254	2.11667	133.516	-13.1472	61.0406	118.441	-19.5195	41.3191	107.049	-19.8176	21.6173	97.1772	-21.5485	4.51582	139.58	-16.284	-10.3033	135.907	-23.0827	-27.5168	126.826	-29.973	-52.7809	160.351	-19.072	-11.9163	162.718	-24.9315	-36.5593	164.997	-31.4729	-62.6366	182.464	-23.6338	-4.8703	185.068	-26.0853	-25.8098	188.242	-29.3904	-47.5452	202.257	-29.6928	12.3778	205.797	-31.0724	-6.67953	215.159	-29.5557	-17.8401	183.558	-8.95181	39.5674	179.253	-0.838124	59.8175	155.688	1.46924	48.0994	
255	2.125	133.19	-13.7346	62.3622	117.933	-18.6422	39.1145	104.823	-20.3321	20.6457	94.196	-21.5616	4.52614	140.494	-18.0259	-6.14334	135.398	-24.5032	-29.1866	130.81	-31.3929	-53.3139	163.851	-21.6631	-14.0675	166.164	-27.4518	-35.5419	167.835	-32.8899	-57.6725	183.834	-26.5098	-2.06747	189.207	-29.6635	-27.8372	190.186	-32.7195	-44.8378	204.014	-31.2742	13.1025	209.794	-33.7069	-3.32034	216.918	-30.7476	-16.6816	183.052	-11.6965	36.3387	182.11	-2.20967	63.5566	155.43	-1.36953	45.9513	
256	2.13333	136.583	-14.4448	57.231	120.784	-20.8659	39.3235	109.457	-21.6827	19.8352	100.347	-23.7616	6.69998	143.714	-21.0567	-9.26152	137.434	-25.5709	-27.9241	134.016	-32.4157	-50.7801	168.383	-23.2684	-11.5279	169.571	-29.4956	-35.4044	168.979	-34.0427	-60.652	183.483	-27.4955	-7.50338	192.6	-32.8905	-24.2543	193.221	-34.0728	-44.2893	206.002	-32.6694	9.79015	210.524	-35.3849	-5.8976	219.462	-32.1721	-14.9515	182.083	-11.1358	37.0059	182.634	-2.26124	59.7489	161.364	-0.705826	47.2935	
257	2.14167	135.085	-13.6833	60.0725	123.632	-21.0888	39.9589	109.26	-22.3943	22.1306	100.563	-23.0678	4.67809	141.187	-20.9904	-10.4431	141.408	-28.274	-33.2311	136.255	-32.848	-52.0123	165.38	-22.9319	-15.0315	168.189	-29.7883	-35.0922	171.88	-35.1805	-60.9203	185.084	-27.7638	-6.59028	192.329	-33.1123	-26.7842	193.809	-34.9786	-45.3084	205.651	-34.1961	10.7033	211.857	-36.9754	-2.62896	224.066	-33.2479	-18.3572	185.27	-13.0402	33.8639	185.642	-2.71666	58.6595	161.32	-1.87433	46.4642	
258	2.15	137.569	-15.4128	59.698	118.937	-19.0899	38.2065	109.856	-21.8971	20.1917	98.3727	-23.3765	3.5061	145.37	-20.4402	-9.57649	141.603	-27.729	-33.7277	139.041	-32.9402	-50.6989	170.148	-24.8671	-14.6118	167.699	-29.7974	-39.7512	172.547	-35.9704	-62.5278	190.873	-29.5665	-8.25609	192.933	-32.8068	-28.0877	196.936	-37.2029	-48.9572	203.316	-34.7902	12.2494	216.158	-38.1009	-3.23126	223.283	-34.0367	-19.678	185.175	-10.9734	34.8668	188.892	-5.49446	57.7691	160.246	-0.838636	43.5876	
259	2.15833	137.284	-13.5947	57.9379	123.22	-19.7754	37.1865	111.84	-20.9899	19.1823	99.7384	-22.8423	5.6104	142.046	-20.1111	-12.2518	139.164	-27.2193	-32.4629	135.131	-31.8307	-54.6998	170.577	-25.3933	-18.3401	166.606	-29.7963	-38.7954	174.894	-34.7713	-59.7425	186.185	-27.8959	-6.18526	192.32	-33.9423	-24.5261	193.891	-36.472	-46.4363	208.118	-34.3321	9.67418	215.87	-37.6354	-6.46342	223.098	-33.4112	-17.1754	188.099	-11.9406	32.0282	189.461	-5.9957	60.5999	158.825	-1.39513	45.7255	
260	2.16667	136.219	-13.35	59.0153	122.928	-18.8629	40.8268	109.315	-18.851	19.8825	96.7201	-19.6362	5.50273	146.166	-20.3014	-13.4562	143.317	-26.059	-31.445	136.357	-32.0647	-55.0234	169.172	-23.5057	-13.7866	169.368	-28.5055	-37.2801	172.563	-33.7362	-61.128	186.623	-28.2736	-7.73551	191.169	-31.8465	-28.3443	195.694	-35.1234	-48.2845	208.08	-34.2593	8.75405	214.315	-37.4397	-3.74947	223.86	-34.6669	-17.0593	187.603	-13.3536	36.3272	187.04	-5.369	60.0881	162.549	-1.22277	41.3391	
261	2.175	139.665	-12.4787	59.2708	122.627	-16.5884	36.6865	112.419	-17.8209	15.1211	102.165	-18.8491	0.88734	145.645	-18.4363	-11.301	138.961	-23.0915	-29.7212	137.979	-30.6124	-52.7938	167.952	-22.1459	-17.1591	171.67	-29.3704	-37.7393	172.37	-33.1103	-63.7567	188.842	-27.6209	-8.61884	193.915	-32.0928	-25.0899	195.672	-34.4441	-49.2953	204.139	-34.0015	12.4736	215.073	-36.8349	-3.32928	222.885	-32.9397	-21.608	187.932	-11.976	34.026	184.998	-4.62516	59.4007	162.043	-1.39512	44.1494	
262	2.18333	138.558	-10.9838	56.5791	122.487	-16.978	41.606	109.585	-15.7719	21.085	100.316	-17.3993	5.00224	145.095	-17.2719	-12.9579	143.767	-23.5157	-30.9704	139.87	-28.476	-52.9892	171.764	-22.9295	-15.6077	172.145	-27.9401	-39.5673	174.405	-32.6588	-60.6042	189.123	-26.7908	-4.94002	192.499	-31.3433	-27.7417	199.143	-34.7741	-47.9417	206.17	-34.1555	11.1197	213.648	-36.0672	-2.6847	223.11	-34.4156	-15.6689	190.597	-12.5968	38.3363	189.322	-2.98377	59.8449	164.265	0.374694	41.9025	
263	2.19167	139.294	-11.0667	56.6231	123.292	-15.3501	40.1138	111.873	-15.08	17.3536	99.5514	-15.1599	5.8171	144.782	-15.1609	-10.9549	139.325	-20.2736	-30.7883	137.48	-25.5458	-48.9527	171.611	-21.0785	-12.3857	171.513	-26.4226	-34.5679	171.461	-30.0955	-60.859	188.934	-25.19	-5.16391	195.884	-30.5861	-24.584	199.221	-34.6426	-43.8319	206.708	-33.0113	13.8315	214.226	-36.5822	-2.56207	222.714	-32.0413	-15.8457	188.246	-10.773	38.1862	188.425	-2.16877	61.7758	162.993	-0.596636	47.0095	
264	2.2	137.496	-9.27347	63.0554	124.864	-14.8863	43.5613	112.062	-13.5562	19.1191	103.005	-15.5563	7.34697	146.165	-14.3105	-10.1942	139.712	-19.2337	-27.6561	139.858	-25.5689	-48.6057	171.97	-19.8215	-12.7047	172.994	-24.8656	-35.2271	174.56	-30.4735	-61.4145	191.524	-25.0878	-2.2197	192.036	-29.1452	-24.9273	199.151	-34.7355	-46.7172	204.912	-31.6405	13.4899	213.49	-34.4768	-2.17504	223.43	-31.7025	-18.9863	191.392	-10.7639	40.3281	187.645	-2.81688	60.7295	163.67	0.828536	48.0071	
265	2.20833	142.629	-8.99458	60.1605	124.835	-12.1135	41.6188	111.999	-11.2264	20.153	99.9299	-11.5293	6.32424	149.142	-12.5869	-7.46949	143.322	-17.1729	-27.236	139.537	-22.9981	-50.0815	172.02	-17.9296	-14.3427	172.226	-23.6791	-33.4363	177.091	-30.0365	-57.952	189.919	-24.403	-3.53724	196.359	-28.8174	-25.5524	196.869	-32.6704	-41.5923	210.24	-31.2355	13.8091	212.904	-33.2983	1.68379	226.457	-32.7729	-14.5425	191.319	-11.3227	36.489	189.667	-0.820681	65.5522	164.259	3.07983	48.1052	
266	2.21667	140.047	-7.34628	60.8616	126.858	-12.7834	44.0086	116.78	-11.7526	23.8737	99.7106	-10.4929	8.25555	151.247	-10.8889	-3.12907	143.234	-16.2724	-28.6698	142.307	-21.461	-48.1221	174.137	-17.7543	-12.5423	173.141	-21.6901	-34.3575	173.48	-26.5316	-57.1513	189.2	-22.1932	-2.54658	197.458	-28.944	-20.028	198.465	-32.3718	-43.3169	205.776	-29.6354	16.9701	217.931	-33.7638	3.11425	224.676	-28.1195	-14.9078	192.276	-8.62738	40.0305	191.091	-3.34453	62.5212	167.412	1.42927	50.8954	
267	2.225	144.72	-9.32348	65.8618	127.709	-11.598	44.1259	115.759	-10.9152	25.018	103.511	-10.9912	10.4847	146.487	-9.68326	-2.6944	147.493	-15.9553	-24.6007	143.528	-21.0632	-50.8061	171.817	-15.6868	-10.6397	174.832	-22.0018	-32.7323	176.338	-25.6133	-55.3005	191.94	-21.5759	-1.54663	193.654	-26.3765	-22.9549	197.06	-30.4678	-45.2091	207.316	-29.8785	16.9843	217.295	-33.0748	4.31974	227.691	-29.2498	-14.0204	193.054	-8.68165	38.7725	192.611	-1.08564	64.2799	166.699	2.62701	48.5932	
268	2.23333	142.326	-7.63452	68.123	124.095	-10.54	45.4302	116.08	-11.4517	28.8256	101.585	-8.4906	10.9506	151.324	-9.78582	-5.77179	143.781	-14.9002	-26.0286	141.585	-19.7526	-46.7614	174.541	-16.0213	-9.12157	172.687	-20.0607	-29.8107	179.967	-26.9955	-56.9805	191.432	-20.9894	-1.82227	193.914	-25.9567	-22.4582	196.482	-30.3073	-42.0112	210.137	-30.5577	18.1547	218.785	-32.6173	0.733218	230.579	-29.6415	-11.2523	191.575	-9.38568	40.0913	194.251	-4.51217	68.3915	166.079	3.22937	55.2334	
